<?xml version="1.0" encoding="UTF-8" standalone="no"?>
<!DOCTYPE svg PUBLIC "-//W3C//DTD SVG 1.1//EN" "http://www.w3.org/Graphics/SVG/1.1/DTD/svg11.dtd">
<svg width="100%" height="100%" viewBox="0 0 20 19" version="1.1" xmlns="http://www.w3.org/2000/svg" xmlns:xlink="http://www.w3.org/1999/xlink" xml:space="preserve" xmlns:serif="http://www.serif.com/" style="fill-rule:evenodd;clip-rule:evenodd;">
    <g transform="matrix(1,0,0,1,-1233.94,-30.6983)">
        <path d="M1234.97,46.959L1234.99,47.718L1234.99,47.718C1235,48.026 1235.25,48.271 1235.56,48.271L1251.74,48.271C1251.89,48.271 1252.04,48.208 1252.15,48.097C1252.25,47.986 1252.31,47.836 1252.31,47.681L1252.31,47.681L1234.97,46.959ZM1234.97,46.959L1234.97,46.941C1234.97,43.789 1237.53,41.225 1240.68,41.225L1246.57,41.225C1249.72,41.225 1252.28,43.784 1252.28,46.931M1234.97,46.959L1252.31,47.68L1252.28,46.931M1252.28,46.928L1252.28,46.935L1252.03,46.936L1252.28,46.928ZM1236.12,47.129L1251.15,47.129L1251.14,46.959L1251.14,46.941C1251.14,44.42 1249.09,42.368 1246.57,42.368L1240.68,42.368C1238.16,42.368 1236.11,44.415 1236.11,46.933L1236.12,47.129Z" style="fill:rgb(63,62,60);fill-rule:nonzero;stroke:rgb(63,62,60);stroke-width:0.5px;"/>
        <path d="M1247.92,36.025C1247.92,38.393 1245.99,40.32 1243.63,40.32C1241.26,40.32 1239.33,38.393 1239.33,36.025C1239.33,35.016 1239.69,34.035 1240.33,33.264C1241.15,32.288 1242.35,31.729 1243.63,31.729C1245.99,31.729 1247.92,33.656 1247.92,36.025ZM1246.78,36.024C1246.78,34.286 1245.36,32.871 1243.63,32.871C1242.69,32.871 1241.81,33.282 1241.21,33.998C1240.73,34.563 1240.47,35.283 1240.47,36.024C1240.47,37.763 1241.89,39.177 1243.63,39.177C1245.36,39.177 1246.78,37.763 1246.78,36.024Z" style="fill:rgb(63,62,60);fill-rule:nonzero;stroke:rgb(63,62,60);stroke-width:0.5px;"/>
    </g>
</svg>
