<?xml version="1.0" encoding="UTF-8" standalone="no"?>
<!DOCTYPE svg PUBLIC "-//W3C//DTD SVG 1.1//EN" "http://www.w3.org/Graphics/SVG/1.1/DTD/svg11.dtd">
<svg width="100%" height="100%" viewBox="0 0 17 18" version="1.1" xmlns="http://www.w3.org/2000/svg" xmlns:xlink="http://www.w3.org/1999/xlink" xml:space="preserve" xmlns:serif="http://www.serif.com/" style="fill-rule:evenodd;clip-rule:evenodd;stroke-linejoin:round;stroke-miterlimit:2;">
    <g transform="matrix(1,0,0,1,-1338.98,-31.25)">
        <path d="M1355.49,46.757L1353.93,37.521C1353.8,36.704 1353.11,36.111 1352.32,36.111L1350.99,36.111L1350.99,35.139C1350.99,32.99 1349.32,31.25 1347.24,31.25C1345.17,31.25 1343.49,32.99 1343.49,35.139L1343.49,36.111L1342.17,36.111C1341.37,36.111 1340.69,36.704 1340.56,37.521L1339,46.757C1338.92,47.253 1339.06,47.758 1339.37,48.147C1339.67,48.526 1340.13,48.75 1340.62,48.75L1353.86,48.75C1354.35,48.75 1354.81,48.526 1355.12,48.147C1355.43,47.758 1355.56,47.253 1355.49,46.757ZM1344.9,35.139C1344.9,33.797 1345.95,32.708 1347.24,32.708C1348.54,32.708 1349.59,33.797 1349.59,35.139L1349.59,36.111L1344.9,36.111L1344.9,35.139ZM1354.04,47.204C1354.01,47.233 1353.96,47.292 1353.86,47.292L1340.62,47.292C1340.53,47.292 1340.47,47.233 1340.44,47.204C1340.42,47.175 1340.37,47.107 1340.39,47.01L1341.94,37.774C1341.96,37.657 1342.06,37.569 1342.17,37.569L1343.49,37.569L1343.49,40.243C1343.49,40.642 1343.81,40.972 1344.2,40.972C1344.58,40.972 1344.9,40.642 1344.9,40.243L1344.9,37.569L1349.59,37.569L1349.59,40.243C1349.59,40.642 1349.91,40.972 1350.29,40.972C1350.68,40.972 1350.99,40.642 1350.99,40.243L1350.99,37.569L1352.32,37.569C1352.43,37.569 1352.52,37.657 1352.54,37.774L1354.1,47.01C1354.11,47.107 1354.07,47.175 1354.04,47.204Z" style="fill:rgb(63,62,60);fill-rule:nonzero;"/>
    </g>
</svg>
