<?xml version="1.0" encoding="UTF-8" standalone="no"?>
<!DOCTYPE svg PUBLIC "-//W3C//DTD SVG 1.1//EN" "http://www.w3.org/Graphics/SVG/1.1/DTD/svg11.dtd">
<svg width="100%" height="100%" viewBox="0 0 428 116" version="1.1" xmlns="http://www.w3.org/2000/svg" xmlns:xlink="http://www.w3.org/1999/xlink" xml:space="preserve" xmlns:serif="http://www.serif.com/" style="fill-rule:evenodd;clip-rule:evenodd;stroke-linecap:square;stroke-linejoin:round;">
    <rect x="0" y="0" width="428" height="116" style="fill:white;"/>
    <path d="M24.917,25.583L45.083,25.583" style="fill:none;fill-rule:nonzero;stroke:rgb(63,62,60);stroke-width:1.4px;"/>
    <path d="M24.917,32L45.083,32L24.917,32Z" style="fill:rgb(217,217,217);"/>
    <path d="M24.917,32L45.083,32" style="fill:none;fill-rule:nonzero;stroke:rgb(63,62,60);stroke-width:1.4px;"/>
    <path d="M24.917,38.417L45.083,38.417" style="fill:none;fill-rule:nonzero;stroke:rgb(63,62,60);stroke-width:1.4px;"/>
    <path d="M81.005,40.823C80.792,40.823 80.589,40.739 80.428,40.591L72.874,33.002C70.865,30.999 70.876,27.479 72.906,25.487C74.925,23.494 78.216,23.484 80.257,25.465C80.557,25.761 80.802,26.066 81.005,26.382C81.208,26.056 81.454,25.761 81.721,25.487C82.704,24.517 84.008,23.979 85.408,23.979C86.797,23.979 88.111,24.517 89.094,25.487C91.135,27.5 91.135,31.02 89.094,33.033L81.572,40.591C81.422,40.739 81.219,40.823 81.005,40.823ZM76.582,25.571C75.663,25.571 74.744,25.908 74.049,26.604C72.649,27.985 72.639,30.504 74.028,31.895L81.005,38.905L87.962,31.916C89.372,30.525 89.372,27.995 87.962,26.604C86.605,25.265 84.222,25.265 82.854,26.604C82.491,26.962 82.213,27.394 82.021,27.89C81.807,28.459 81.689,28.638 81.689,28.638C81.561,28.87 81.283,29.018 81.005,29.018C80.728,29.018 80.46,28.87 80.311,28.638C80.311,28.638 80.204,28.459 79.969,27.9C79.798,27.405 79.531,26.994 79.168,26.635C78.441,25.919 77.511,25.571 76.582,25.571Z" style="fill:rgb(63,62,60);fill-rule:nonzero;"/>
    <path d="M124.052,24.91C124.224,24.326 124.518,23.914 124.96,23.914C125.451,23.914 125.819,24.429 125.819,25.253L125.819,38.919C125.819,41.974 127.047,44 129.477,44C131.686,44 132.766,42.352 133.405,39.708L137.43,24.91C137.578,24.326 137.921,23.914 138.339,23.914C138.83,23.914 139.173,24.429 139.173,25.253L139.173,43.588L142.095,43.588L142.095,25.047C142.095,22.026 140.867,20 138.412,20C136.203,20 135.147,21.648 134.509,24.292L130.483,39.09C130.336,39.674 129.992,40.052 129.551,40.052C129.06,40.052 128.716,39.536 128.716,38.747L128.716,25.047C128.716,22.026 127.488,20 125.034,20C122.824,20 121.769,21.648 121.131,24.292L116,43.588L119.093,43.588L124.052,24.91Z" style="fill:rgb(11,17,29);fill-rule:nonzero;"/>
    <path d="M151.99,20.412C147.178,20.412 144.502,24.258 144.502,32.051C144.502,39.811 147.154,43.588 151.99,43.588L154.248,43.588C159.084,43.588 161.735,39.811 161.735,32.051C161.735,24.258 159.059,20.412 154.248,20.412L151.99,20.412ZM154.248,24.464C157.439,24.464 158.814,26.73 158.814,32.017C158.814,37.339 157.439,39.536 154.248,39.536L151.99,39.536C148.774,39.536 147.399,37.339 147.399,32.051C147.399,26.73 148.798,24.464 151.99,24.464L154.248,24.464Z" style="fill:rgb(11,17,29);fill-rule:nonzero;"/>
    <path d="M171.049,20.412C166.237,20.412 163.562,24.258 163.562,32.051C163.562,39.811 166.213,43.588 171.049,43.588L173.307,43.588C178.143,43.588 180.794,39.811 180.794,32.051C180.794,24.258 178.119,20.412 173.307,20.412L171.049,20.412ZM173.307,24.464C176.499,24.464 177.873,26.73 177.873,32.017C177.873,37.339 176.499,39.536 173.307,39.536L171.049,39.536C167.833,39.536 166.458,37.339 166.458,32.051C166.458,26.73 167.858,24.464 171.049,24.464L173.307,24.464Z" style="fill:rgb(11,17,29);fill-rule:nonzero;"/>
    <path d="M186.107,25.253C186.107,24.429 186.45,23.914 187.113,23.914C187.629,23.914 187.923,24.223 188.144,24.91L192.98,39.708C193.668,42.352 194.723,44 197.031,44C199.584,44 200.836,41.974 200.836,38.919L200.836,20.412L197.914,20.412L197.914,38.747C197.914,39.536 197.546,40.052 196.932,40.052C196.392,40.052 196.073,39.64 195.877,39.09L191.041,24.292C190.354,21.648 189.323,20 187.015,20C184.438,20 183.21,22.026 183.21,25.047L183.21,43.588L186.107,43.588L186.107,25.253Z" style="fill:rgb(11,17,29);fill-rule:nonzero;"/>
    <path d="M205.203,20.412C204.27,20.412 203.828,21.03 203.828,22.3L203.828,41.7C203.828,42.97 204.27,43.588 205.203,43.588L212.567,43.588C216.47,43.588 218.115,40.91 218.115,37.202C218.115,34.524 217.231,32.807 215.66,31.914C217.207,31.056 218.042,29.442 218.042,26.764C218.042,22.987 216.397,20.412 212.494,20.412L205.203,20.412ZM206.676,33.562L212.641,33.562C214.335,33.562 215.194,34.592 215.194,36.549C215.194,38.438 214.384,39.571 212.641,39.571L206.995,39.571C206.798,39.571 206.676,39.468 206.676,39.193L206.676,33.562ZM206.676,24.807C206.676,24.532 206.798,24.395 206.995,24.395L212.592,24.395C214.359,24.395 215.12,25.597 215.12,27.416C215.12,29.305 214.286,30.197 212.567,30.197L206.676,30.197L206.676,24.807Z" style="fill:rgb(11,17,29);fill-rule:nonzero;"/>
    <path d="M227.388,24.944C227.56,24.395 227.83,24.155 228.223,24.155C228.616,24.155 228.886,24.395 229.033,24.944L234.065,43.588L237.281,43.588L231.684,22.987C231.095,20.824 229.966,20 228.247,20C226.504,20 225.375,20.824 224.762,22.987L218.944,43.588L222.135,43.588L227.388,24.944Z" style="fill:rgb(11,17,29);fill-rule:nonzero;"/>
    <path d="M241.189,20.412C237.506,20.412 236.034,23.228 236.034,27.073C236.034,30.3 237.065,33.768 241.483,33.768L245.337,33.768C247.375,33.768 247.939,35.142 247.939,36.652C247.939,38.335 247.227,39.536 245.656,39.536L236.328,39.536L236.328,43.588L245.558,43.588C249.339,43.588 250.836,40.704 250.836,36.79C250.836,33.459 249.78,29.957 245.264,29.957L241.385,29.957C239.446,29.957 238.93,28.618 238.93,27.21C238.93,25.597 239.593,24.464 241.09,24.464L249.584,24.464L249.584,20.412L241.189,20.412Z" style="fill:rgb(11,17,29);fill-rule:nonzero;"/>
    <path d="M257.678,20.412C253.775,20.412 252.13,23.022 252.13,26.73C252.13,29.27 252.916,31.056 254.462,31.949C252.94,32.841 252.081,34.627 252.081,37.27C252.081,40.876 253.677,43.588 257.605,43.588L266,43.588L266,39.536L257.605,39.536C255.911,39.536 255.101,38.438 255.101,36.618C255.101,34.73 255.96,33.803 257.629,33.803L265.853,33.803L265.853,30.129L257.703,30.129C256.033,30.129 255.174,29.27 255.174,27.382C255.174,25.597 255.935,24.464 257.678,24.464L265.975,24.464L265.975,20.412L257.678,20.412Z" style="fill:rgb(11,17,29);fill-rule:nonzero;"/>
    <g transform="matrix(1.15103,0,0,1.15103,-1084.91,-13.8258)">
        <path d="M1234.97,46.959L1234.99,47.718L1234.99,47.718C1235,48.026 1235.25,48.271 1235.56,48.271L1251.74,48.271C1251.89,48.271 1252.04,48.208 1252.15,48.097C1252.25,47.986 1252.31,47.836 1252.31,47.681L1252.31,47.681L1234.97,46.959ZM1234.97,46.959L1234.97,46.941C1234.97,43.789 1237.53,41.225 1240.68,41.225L1246.57,41.225C1249.72,41.225 1252.28,43.784 1252.28,46.931M1234.97,46.959L1252.31,47.68L1252.28,46.931M1252.28,46.928L1252.28,46.935L1252.03,46.936L1252.28,46.928ZM1236.12,47.129L1251.15,47.129L1251.14,46.959L1251.14,46.941C1251.14,44.42 1249.09,42.368 1246.57,42.368L1240.68,42.368C1238.16,42.368 1236.11,44.415 1236.11,46.933L1236.12,47.129Z" style="fill:rgb(63,62,60);fill-rule:nonzero;stroke:rgb(63,62,60);stroke-width:0.5px;stroke-linecap:butt;stroke-linejoin:miter;"/>
        <path d="M1247.92,36.025C1247.92,38.393 1245.99,40.32 1243.63,40.32C1241.26,40.32 1239.33,38.393 1239.33,36.025C1239.33,35.016 1239.69,34.035 1240.33,33.264C1241.15,32.288 1242.35,31.729 1243.63,31.729C1245.99,31.729 1247.92,33.656 1247.92,36.025ZM1246.78,36.024C1246.78,34.286 1245.36,32.871 1243.63,32.871C1242.69,32.871 1241.81,33.282 1241.21,33.998C1240.73,34.563 1240.47,35.283 1240.47,36.024C1240.47,37.763 1241.89,39.177 1243.63,39.177C1245.36,39.177 1246.78,37.763 1246.78,36.024Z" style="fill:rgb(63,62,60);fill-rule:nonzero;stroke:rgb(63,62,60);stroke-width:0.5px;stroke-linecap:butt;stroke-linejoin:miter;"/>
    </g>
    <path d="M351.288,27.627C351.288,30.219 349.179,32.327 346.588,32.327C343.996,32.327 341.888,30.219 341.888,27.627C341.888,26.523 342.278,25.45 342.987,24.606C343.883,23.539 345.196,22.927 346.588,22.927C349.179,22.927 351.288,25.036 351.288,27.627ZM350.081,27.627C350.081,25.7 348.514,24.133 346.588,24.133C345.552,24.133 344.577,24.588 343.911,25.381C343.385,26.008 343.094,26.805 343.094,27.627C343.094,29.553 344.662,31.12 346.588,31.12C348.514,31.12 350.081,29.553 350.081,27.627Z" style="fill:rgb(63,62,60);fill-rule:nonzero;stroke:rgb(63,62,60);stroke-width:0.5px;stroke-linecap:butt;stroke-linejoin:miter;"/>
    <path d="M402.335,39.433L400.623,29.273C400.478,28.375 399.725,27.722 398.848,27.722L397.394,27.722L397.394,26.653C397.394,24.289 395.547,22.375 393.267,22.375C390.988,22.375 389.141,24.289 389.141,26.653L389.141,27.722L387.687,27.722C386.81,27.722 386.057,28.375 385.912,29.273L384.2,39.433C384.117,39.978 384.262,40.534 384.602,40.962C384.943,41.379 385.448,41.625 385.984,41.625L400.55,41.625C401.087,41.625 401.592,41.379 401.933,40.962C402.273,40.534 402.418,39.978 402.335,39.433ZM390.688,26.653C390.688,25.177 391.844,23.979 393.267,23.979C394.691,23.979 395.846,25.177 395.846,26.653L395.846,27.722L390.688,27.722L390.688,26.653ZM400.746,39.925C400.715,39.957 400.654,40.021 400.55,40.021L385.984,40.021C385.881,40.021 385.819,39.957 385.788,39.925C385.758,39.893 385.706,39.818 385.727,39.711L387.429,29.551C387.46,29.423 387.563,29.326 387.687,29.326L389.141,29.326L389.141,32.267C389.141,32.706 389.492,33.069 389.915,33.069C390.338,33.069 390.688,32.706 390.688,32.267L390.688,29.326L395.846,29.326L395.846,32.267C395.846,32.706 396.197,33.069 396.62,33.069C397.043,33.069 397.394,32.706 397.394,32.267L397.394,29.326L398.848,29.326C398.972,29.326 399.075,29.423 399.096,29.551L400.808,39.711C400.819,39.818 400.777,39.893 400.746,39.925Z" style="fill:rgb(63,62,60);fill-rule:nonzero;"/>
    <g transform="matrix(1,0,0,1,0,64)">
        <rect x="0" y="0" width="428" height="52" style="fill:white;"/>
    </g>
    <g transform="matrix(1,0,0,1,24,64)">
        <rect x="0" y="0" width="380" height="40" style="fill:rgb(247,247,247);"/>
    </g>
    <path d="M54.24,92.817L49.78,88.357C51.047,86.766 51.813,84.746 51.813,82.57C51.813,77.464 47.652,73.303 42.546,73.303C37.44,73.303 33.279,77.464 33.279,82.57C33.279,87.675 37.44,91.836 42.546,91.836C44.818,91.836 46.91,91.011 48.536,89.648L52.972,94.084C53.152,94.264 53.379,94.347 53.606,94.347C53.833,94.347 54.061,94.264 54.24,94.084C54.587,93.738 54.587,93.164 54.24,92.817ZM35.073,82.57C35.073,78.444 38.421,75.096 42.546,75.096C46.671,75.096 50.019,78.444 50.019,82.57C50.019,84.59 49.23,86.408 47.926,87.747L47.915,87.759C47.903,87.771 47.903,87.771 47.903,87.783C46.539,89.182 44.638,90.043 42.546,90.043C38.421,90.043 35.073,86.695 35.073,82.57Z" style="fill:rgb(63,62,60);fill-rule:nonzero;"/>
    <path d="M69.863,86.844C69.863,86.582 69.803,86.361 69.682,86.182C69.565,86.002 69.412,85.852 69.225,85.731C69.037,85.606 68.83,85.502 68.604,85.42C68.381,85.338 68.166,85.264 67.959,85.197C67.658,85.1 67.352,84.982 67.039,84.846C66.731,84.709 66.447,84.541 66.19,84.342C65.936,84.143 65.727,83.908 65.563,83.639C65.402,83.365 65.322,83.045 65.322,82.678C65.322,82.311 65.402,81.982 65.563,81.693C65.727,81.404 65.94,81.16 66.201,80.961C66.463,80.762 66.76,80.611 67.092,80.51C67.424,80.404 67.758,80.352 68.094,80.352C68.465,80.352 68.822,80.414 69.166,80.539C69.51,80.66 69.815,80.832 70.08,81.055C70.346,81.277 70.559,81.547 70.719,81.863C70.879,82.18 70.963,82.533 70.971,82.924L69.857,82.924C69.826,82.678 69.766,82.455 69.676,82.256C69.586,82.053 69.467,81.879 69.318,81.734C69.17,81.59 68.992,81.479 68.785,81.4C68.582,81.318 68.352,81.277 68.094,81.277C67.887,81.277 67.684,81.307 67.484,81.365C67.289,81.424 67.113,81.512 66.957,81.629C66.805,81.746 66.682,81.891 66.588,82.063C66.498,82.234 66.453,82.434 66.453,82.66C66.457,82.906 66.519,83.115 66.641,83.287C66.762,83.455 66.914,83.598 67.098,83.715C67.285,83.832 67.486,83.93 67.701,84.008C67.92,84.086 68.125,84.154 68.316,84.213C68.527,84.279 68.74,84.356 68.955,84.441C69.17,84.523 69.377,84.619 69.576,84.729C69.775,84.838 69.961,84.961 70.133,85.098C70.305,85.234 70.455,85.391 70.584,85.566C70.713,85.738 70.813,85.93 70.883,86.141C70.957,86.348 70.994,86.578 70.994,86.832C70.994,87.215 70.908,87.549 70.736,87.834C70.568,88.119 70.35,88.357 70.08,88.549C69.811,88.736 69.506,88.879 69.166,88.977C68.826,89.07 68.486,89.117 68.147,89.117C67.768,89.117 67.397,89.059 67.033,88.941C66.67,88.824 66.344,88.656 66.055,88.438C65.769,88.215 65.537,87.945 65.357,87.629C65.178,87.309 65.082,86.945 65.07,86.539L66.178,86.539C66.213,86.805 66.285,87.041 66.394,87.248C66.504,87.451 66.644,87.625 66.816,87.769C66.988,87.91 67.186,88.018 67.408,88.092C67.635,88.162 67.881,88.197 68.147,88.197C68.357,88.197 68.565,88.172 68.768,88.121C68.975,88.066 69.158,87.984 69.318,87.875C69.479,87.762 69.609,87.621 69.711,87.453C69.813,87.281 69.863,87.078 69.863,86.844ZM75.406,89.117C74.961,89.117 74.551,89.041 74.176,88.889C73.805,88.736 73.486,88.523 73.221,88.25C72.955,87.977 72.748,87.652 72.6,87.277C72.451,86.902 72.377,86.494 72.377,86.053L72.377,85.807C72.377,85.295 72.459,84.838 72.623,84.436C72.787,84.029 73.004,83.688 73.273,83.41C73.547,83.129 73.856,82.914 74.199,82.766C74.547,82.617 74.902,82.543 75.266,82.543C75.723,82.543 76.121,82.623 76.461,82.783C76.805,82.94 77.09,83.158 77.316,83.44C77.543,83.717 77.711,84.045 77.82,84.424C77.934,84.803 77.99,85.213 77.99,85.654L77.99,86.141L73.461,86.141C73.473,86.43 73.527,86.701 73.625,86.955C73.727,87.209 73.863,87.432 74.035,87.623C74.211,87.811 74.42,87.959 74.662,88.068C74.904,88.178 75.172,88.232 75.465,88.232C75.852,88.232 76.195,88.154 76.496,87.998C76.797,87.842 77.047,87.635 77.246,87.377L77.908,87.893C77.803,88.053 77.67,88.207 77.51,88.356C77.354,88.5 77.172,88.629 76.965,88.742C76.758,88.856 76.523,88.945 76.262,89.012C76,89.082 75.715,89.117 75.406,89.117ZM75.266,83.434C75.047,83.434 74.84,83.475 74.644,83.557C74.449,83.635 74.273,83.752 74.117,83.908C73.961,84.061 73.828,84.25 73.719,84.477C73.613,84.699 73.539,84.957 73.496,85.25L76.906,85.25L76.906,85.168C76.894,84.957 76.854,84.748 76.783,84.541C76.717,84.334 76.617,84.148 76.484,83.984C76.352,83.82 76.184,83.688 75.981,83.586C75.781,83.484 75.543,83.434 75.266,83.434ZM83.979,89C83.936,88.918 83.9,88.816 83.873,88.695C83.85,88.57 83.832,88.441 83.82,88.309C83.711,88.418 83.588,88.522 83.451,88.619C83.318,88.717 83.17,88.803 83.006,88.877C82.846,88.951 82.674,89.01 82.49,89.053C82.307,89.096 82.111,89.117 81.904,89.117C81.568,89.117 81.264,89.068 80.99,88.971C80.721,88.873 80.49,88.742 80.299,88.578C80.111,88.41 79.965,88.213 79.859,87.986C79.758,87.756 79.707,87.508 79.707,87.242C79.707,86.894 79.775,86.59 79.912,86.328C80.053,86.066 80.25,85.85 80.504,85.678C80.758,85.502 81.063,85.371 81.418,85.285C81.777,85.199 82.178,85.156 82.619,85.156L83.803,85.156L83.803,84.658C83.803,84.467 83.768,84.295 83.697,84.143C83.627,83.99 83.527,83.861 83.398,83.756C83.269,83.647 83.111,83.563 82.924,83.504C82.74,83.445 82.533,83.416 82.303,83.416C82.088,83.416 81.894,83.443 81.723,83.498C81.555,83.553 81.412,83.625 81.295,83.715C81.178,83.805 81.086,83.912 81.019,84.037C80.957,84.158 80.926,84.285 80.926,84.418L79.836,84.418C79.84,84.188 79.898,83.961 80.012,83.738C80.129,83.516 80.295,83.316 80.51,83.141C80.729,82.961 80.992,82.816 81.301,82.707C81.613,82.598 81.967,82.543 82.361,82.543C82.721,82.543 83.055,82.588 83.363,82.678C83.672,82.764 83.938,82.897 84.16,83.076C84.387,83.252 84.565,83.473 84.693,83.738C84.822,84.004 84.887,84.315 84.887,84.67L84.887,87.617C84.887,87.828 84.906,88.053 84.945,88.291C84.984,88.525 85.039,88.731 85.109,88.906L85.109,89L83.979,89ZM82.063,88.174C82.273,88.174 82.471,88.147 82.654,88.092C82.838,88.037 83.004,87.965 83.152,87.875C83.305,87.785 83.436,87.684 83.545,87.57C83.654,87.453 83.74,87.332 83.803,87.207L83.803,85.924L82.795,85.924C82.162,85.924 81.67,86.018 81.318,86.205C80.967,86.393 80.791,86.688 80.791,87.09C80.791,87.246 80.816,87.391 80.867,87.523C80.922,87.656 81.002,87.772 81.107,87.869C81.213,87.963 81.346,88.037 81.506,88.092C81.666,88.147 81.852,88.174 82.063,88.174ZM91.174,82.543C91.275,82.543 91.381,82.547 91.49,82.555C91.6,82.559 91.703,82.568 91.801,82.584C91.902,82.596 91.994,82.611 92.076,82.631C92.162,82.65 92.232,82.672 92.287,82.695L92.141,83.756C91.93,83.709 91.729,83.676 91.537,83.656C91.35,83.633 91.152,83.621 90.945,83.621C90.438,83.621 90.025,83.736 89.709,83.967C89.397,84.197 89.166,84.519 89.018,84.934L89.018,89L87.928,89L87.928,82.66L88.959,82.66L89.012,83.668C89.269,83.32 89.578,83.047 89.938,82.848C90.301,82.644 90.713,82.543 91.174,82.543ZM96.928,88.238C97.123,88.238 97.313,88.207 97.496,88.144C97.684,88.082 97.85,87.996 97.994,87.887C98.139,87.773 98.254,87.643 98.34,87.494C98.43,87.342 98.477,87.178 98.481,87.002L99.506,87.002C99.502,87.283 99.428,87.553 99.283,87.811C99.143,88.065 98.953,88.289 98.715,88.484C98.477,88.676 98.203,88.83 97.894,88.947C97.586,89.061 97.264,89.117 96.928,89.117C96.447,89.117 96.027,89.031 95.668,88.859C95.309,88.688 95.008,88.457 94.766,88.168C94.527,87.875 94.348,87.539 94.227,87.16C94.106,86.777 94.045,86.375 94.045,85.953L94.045,85.707C94.045,85.289 94.106,84.889 94.227,84.506C94.348,84.123 94.527,83.787 94.766,83.498C95.008,83.205 95.309,82.973 95.668,82.801C96.027,82.629 96.447,82.543 96.928,82.543C97.303,82.543 97.647,82.604 97.959,82.725C98.275,82.842 98.547,83.004 98.773,83.211C99.004,83.414 99.184,83.656 99.313,83.938C99.441,84.219 99.506,84.519 99.506,84.84L98.481,84.84C98.477,84.648 98.434,84.469 98.352,84.301C98.273,84.129 98.166,83.979 98.029,83.85C97.893,83.721 97.729,83.619 97.537,83.545C97.35,83.471 97.147,83.434 96.928,83.434C96.592,83.434 96.309,83.502 96.078,83.639C95.852,83.772 95.668,83.947 95.527,84.166C95.387,84.381 95.285,84.623 95.223,84.893C95.164,85.162 95.135,85.434 95.135,85.707L95.135,85.953C95.135,86.231 95.164,86.506 95.223,86.779C95.285,87.049 95.385,87.293 95.522,87.512C95.662,87.727 95.846,87.902 96.072,88.039C96.303,88.172 96.588,88.238 96.928,88.238ZM102.518,83.604C102.744,83.272 103.023,83.014 103.355,82.83C103.688,82.643 104.061,82.547 104.475,82.543C104.807,82.543 105.107,82.592 105.377,82.69C105.65,82.783 105.883,82.932 106.074,83.135C106.266,83.338 106.412,83.596 106.514,83.908C106.619,84.217 106.672,84.584 106.672,85.01L106.672,89L105.588,89L105.588,84.998C105.588,84.479 105.463,84.092 105.213,83.838C104.967,83.584 104.613,83.459 104.152,83.463C103.805,83.463 103.488,83.549 103.203,83.721C102.922,83.889 102.693,84.113 102.518,84.394L102.518,89L101.434,89L101.434,80L102.518,80L102.518,83.604Z" style="fill:rgb(179,179,179);fill-rule:nonzero;"/>
</svg>
