<?xml version="1.0" encoding="UTF-8" standalone="no"?>
<!DOCTYPE svg PUBLIC "-//W3C//DTD SVG 1.1//EN" "http://www.w3.org/Graphics/SVG/1.1/DTD/svg11.dtd">
<svg width="100%" height="100%" viewBox="0 0 188 32" version="1.1" xmlns="http://www.w3.org/2000/svg" xmlns:xlink="http://www.w3.org/1999/xlink" xml:space="preserve" xmlns:serif="http://www.serif.com/" style="fill-rule:evenodd;clip-rule:evenodd;stroke-linejoin:round;stroke-miterlimit:2;">
    <g transform="matrix(1,0,0,1,-662.42,-24)">
        <path d="M672.467,30.547C672.681,29.768 673.049,29.219 673.6,29.219C674.213,29.219 674.672,29.906 674.672,31.004L674.672,49.225C674.672,53.299 676.204,56 679.236,56C681.993,56 683.34,53.803 684.137,50.278L689.16,30.547C689.344,29.768 689.772,29.219 690.293,29.219C690.906,29.219 691.335,29.906 691.335,31.004L691.335,55.451L694.979,55.451L694.979,30.73C694.979,26.701 693.448,24 690.385,24C687.628,24 686.311,26.197 685.515,29.723L680.492,49.454C680.308,50.232 679.879,50.735 679.328,50.735C678.715,50.735 678.286,50.049 678.286,48.996L678.286,30.73C678.286,26.701 676.755,24 673.692,24C670.935,24 669.618,26.197 668.822,29.723L662.42,55.451L666.28,55.451L672.467,30.547Z" style="fill:rgb(11,17,29);fill-rule:nonzero;"/>
        <path d="M707.326,24.549C701.322,24.549 697.984,29.677 697.984,40.069C697.984,50.415 701.292,55.451 707.326,55.451L710.144,55.451C716.178,55.451 719.485,50.415 719.485,40.069C719.485,29.677 716.147,24.549 710.144,24.549L707.326,24.549ZM710.144,29.951C714.125,29.951 715.841,32.973 715.841,40.023C715.841,47.119 714.125,50.049 710.144,50.049L707.326,50.049C703.313,50.049 701.598,47.119 701.598,40.069C701.598,32.973 703.344,29.951 707.326,29.951L710.144,29.951Z" style="fill:rgb(11,17,29);fill-rule:nonzero;"/>
        <path d="M731.106,24.549C725.103,24.549 721.765,29.677 721.765,40.069C721.765,50.415 725.072,55.451 731.106,55.451L733.924,55.451C739.958,55.451 743.266,50.415 743.266,40.069C743.266,29.677 739.928,24.549 733.924,24.549L731.106,24.549ZM733.924,29.951C737.906,29.951 739.621,32.973 739.621,40.023C739.621,47.119 737.906,50.049 733.924,50.049L731.106,50.049C727.094,50.049 725.379,47.119 725.379,40.069C725.379,32.973 727.125,29.951 731.106,29.951L733.924,29.951Z" style="fill:rgb(11,17,29);fill-rule:nonzero;"/>
        <path d="M749.895,31.004C749.895,29.906 750.323,29.219 751.15,29.219C751.794,29.219 752.161,29.631 752.437,30.547L758.471,50.278C759.329,53.803 760.646,56 763.525,56C766.71,56 768.272,53.299 768.272,49.225L768.272,24.549L764.627,24.549L764.627,48.996C764.627,50.049 764.168,50.735 763.402,50.735C762.728,50.735 762.33,50.186 762.085,49.454L756.051,29.723C755.194,26.197 753.907,24 751.028,24C747.812,24 746.28,26.701 746.28,30.73L746.28,55.451L749.895,55.451L749.895,31.004Z" style="fill:rgb(11,17,29);fill-rule:nonzero;"/>
        <path d="M773.721,24.549C772.558,24.549 772.006,25.373 772.006,27.067L772.006,52.933C772.006,54.627 772.558,55.451 773.721,55.451L782.91,55.451C787.78,55.451 789.832,51.88 789.832,46.936C789.832,43.365 788.73,41.076 786.77,39.886C788.699,38.741 789.741,36.589 789.741,33.019C789.741,27.983 787.688,24.549 782.818,24.549L773.721,24.549ZM775.559,42.083L783.002,42.083C785.116,42.083 786.188,43.456 786.188,46.066C786.188,48.584 785.177,50.094 783.002,50.094L775.957,50.094C775.712,50.094 775.559,49.957 775.559,49.591L775.559,42.083ZM775.559,30.409C775.559,30.043 775.712,29.86 775.957,29.86L782.941,29.86C785.146,29.86 786.096,31.462 786.096,33.888C786.096,36.406 785.054,37.597 782.91,37.597L775.559,37.597L775.559,30.409Z" style="fill:rgb(11,17,29);fill-rule:nonzero;"/>
        <path d="M801.403,30.592C801.617,29.86 801.954,29.539 802.444,29.539C802.934,29.539 803.271,29.86 803.455,30.592L809.734,55.451L813.746,55.451L806.763,27.983C806.028,25.099 804.619,24 802.475,24C800.3,24 798.891,25.099 798.125,27.983L790.866,55.451L794.848,55.451L801.403,30.592Z" style="fill:rgb(11,17,29);fill-rule:nonzero;"/>
        <path d="M818.622,24.549C814.027,24.549 812.19,28.303 812.19,33.431C812.19,37.734 813.476,42.358 818.989,42.358L823.798,42.358C826.34,42.358 827.045,44.189 827.045,46.203C827.045,48.446 826.157,50.049 824.196,50.049L812.557,50.049L812.557,55.451L824.074,55.451C828.791,55.451 830.659,51.605 830.659,46.386C830.659,41.946 829.342,37.276 823.706,37.276L818.867,37.276C816.447,37.276 815.804,35.491 815.804,33.614C815.804,31.462 816.631,29.951 818.499,29.951L829.097,29.951L829.097,24.549L818.622,24.549Z" style="fill:rgb(11,17,29);fill-rule:nonzero;"/>
        <path d="M839.196,24.549C834.326,24.549 832.274,28.029 832.274,32.973C832.274,36.361 833.254,38.741 835.184,39.931C833.285,41.122 832.213,43.502 832.213,47.027C832.213,51.834 834.204,55.451 839.105,55.451L849.58,55.451L849.58,50.049L839.105,50.049C836.991,50.049 835.98,48.584 835.98,46.157C835.98,43.64 837.052,42.403 839.135,42.403L849.396,42.403L849.396,37.505L839.227,37.505C837.144,37.505 836.072,36.361 836.072,33.843C836.072,31.462 837.022,29.951 839.196,29.951L849.549,29.951L849.549,24.549L839.196,24.549Z" style="fill:rgb(11,17,29);fill-rule:nonzero;"/>
    </g>
</svg>
