<?xml version="1.0" encoding="UTF-8" standalone="no"?>
<!DOCTYPE svg PUBLIC "-//W3C//DTD SVG 1.1//EN" "http://www.w3.org/Graphics/SVG/1.1/DTD/svg11.dtd">
<svg width="100%" height="100%" viewBox="0 0 22 22" version="1.1" xmlns="http://www.w3.org/2000/svg" xmlns:xlink="http://www.w3.org/1999/xlink" xml:space="preserve" xmlns:serif="http://www.serif.com/" style="fill-rule:evenodd;clip-rule:evenodd;stroke-linejoin:round;stroke-miterlimit:2;">
    <g transform="matrix(1,0,0,1,-105.279,-29.3027)">
        <path d="M126.24,48.817L121.78,44.357C123.047,42.767 123.813,40.746 123.813,38.57C123.813,33.464 119.652,29.303 114.546,29.303C109.44,29.303 105.279,33.464 105.279,38.57C105.279,43.675 109.44,47.836 114.546,47.836C116.818,47.836 118.91,47.011 120.536,45.648L124.972,50.084C125.152,50.264 125.379,50.347 125.606,50.347C125.833,50.347 126.061,50.264 126.24,50.084C126.587,49.737 126.587,49.164 126.24,48.817ZM107.073,38.57C107.073,34.444 110.421,31.096 114.546,31.096C118.671,31.096 122.019,34.444 122.019,38.57C122.019,40.59 121.23,42.408 119.927,43.747L119.915,43.759C119.903,43.771 119.903,43.771 119.903,43.783C118.54,45.182 116.638,46.043 114.546,46.043C110.421,46.043 107.073,42.695 107.073,38.57Z" style="fill:rgb(63,62,60);fill-rule:nonzero;"/>
    </g>
</svg>
