<?xml version="1.0" encoding="UTF-8" standalone="no"?>
<!DOCTYPE svg PUBLIC "-//W3C//DTD SVG 1.1//EN" "http://www.w3.org/Graphics/SVG/1.1/DTD/svg11.dtd">
<svg width="100%" height="100%" viewBox="0 0 18 16" version="1.1" xmlns="http://www.w3.org/2000/svg" xmlns:xlink="http://www.w3.org/1999/xlink" xml:space="preserve" xmlns:serif="http://www.serif.com/" style="fill-rule:evenodd;clip-rule:evenodd;stroke-linejoin:round;stroke-miterlimit:2;">
    <g transform="matrix(1,0,0,1,-1125.25,-32.7084)">
        <path d="M1134,48.021C1133.81,48.021 1133.63,47.944 1133.48,47.81L1126.61,40.911C1124.79,39.09 1124.8,35.89 1126.64,34.079C1128.48,32.268 1131.47,32.258 1133.32,34.06C1133.6,34.328 1133.82,34.606 1134,34.893C1134.19,34.596 1134.41,34.328 1134.66,34.079C1135.55,33.197 1136.73,32.708 1138.01,32.708C1139.27,32.708 1140.46,33.197 1141.36,34.079C1143.21,35.909 1143.21,39.109 1141.36,40.94L1134.52,47.81C1134.38,47.944 1134.2,48.021 1134,48.021ZM1129.98,34.155C1129.15,34.155 1128.31,34.462 1127.68,35.094C1126.41,36.35 1126.4,38.64 1127.66,39.905L1134,46.277L1140.33,39.924C1141.61,38.659 1141.61,36.359 1140.33,35.094C1139.09,33.877 1136.93,33.877 1135.69,35.094C1135.36,35.42 1135.1,35.813 1134.93,36.263C1134.73,36.781 1134.63,36.944 1134.63,36.944C1134.51,37.155 1134.26,37.289 1134,37.289C1133.75,37.289 1133.51,37.155 1133.37,36.944C1133.37,36.944 1133.28,36.781 1133.06,36.273C1132.91,35.823 1132.66,35.449 1132.33,35.123C1131.67,34.472 1130.83,34.155 1129.98,34.155Z" style="fill:rgb(63,62,60);fill-rule:nonzero;"/>
    </g>
</svg>
